<svg width="106" height="32" viewBox="0 0 106 32" fill="none" xmlns="http://www.w3.org/2000/svg" xmlns:xlink="http://www.w3.org/1999/xlink"><path d="M0.5 9.6C0.5 7.91159 0.500389 6.67536 0.580085 5.69993C0.659303 4.73034 0.814384 4.06255 1.09946 3.50305C1.62677 2.46816 2.46816 1.62677 3.50305 1.09946C4.06255 0.814384 4.73034 0.659303 5.69993 0.580085C6.67536 0.500389 7.91159 0.5 9.6 0.5H96.4C98.0884 0.5 99.3246 0.500389 100.3 0.580085C101.27 0.659303 101.937 0.814384 102.497 1.09946C103.532 1.62677 104.373 2.46816 104.901 3.50305C105.186 4.06255 105.341 4.73034 105.42 5.69993C105.5 6.67536 105.5 7.91159 105.5 9.6V22.4C105.5 24.0884 105.5 25.3246 105.42 26.3001C105.341 27.2697 105.186 27.9374 104.901 28.4969C104.373 29.5318 103.532 30.3732 102.497 30.9005C101.937 31.1856 101.27 31.3407 100.3 31.4199C99.3246 31.4996 98.0884 31.5 96.4 31.5H9.6C7.91159 31.5 6.67536 31.4996 5.69993 31.4199C4.73034 31.3407 4.06255 31.1856 3.50305 30.9005C2.46816 30.3732 1.62677 29.5318 1.09946 28.4969C0.814384 27.9374 0.659303 27.2697 0.580085 26.3001C0.500389 25.3246 0.5 24.0884 0.5 22.4V9.6Z" stroke="#6C727E"></path><path d="M36.1801 20.3294H38.9662L37.9688 17.6492C37.8315 17.279 37.6966 16.87 37.5635 16.4221C37.4434 16.8184 37.3125 17.223 37.171 17.6363L36.1801 20.3294ZM39.4423 21.6017H35.7104L34.797 24.1075H33.1562L36.8107 14.7495H38.3614L42.0996 24.1075H40.3753L39.4423 21.6017Z" fill="#6C727E"></path><path d="M46.9396 22.4058C47.2635 21.9689 47.4254 21.3304 47.4254 20.4909C47.4254 19.7117 47.2913 19.1464 47.0233 18.7954C46.7551 18.4446 46.398 18.2692 45.9519 18.2692C45.6431 18.2692 45.3579 18.3425 45.0963 18.4888C44.8346 18.6352 44.5858 18.831 44.3499 19.0765V22.8094C44.5086 22.8869 44.6931 22.9483 44.9033 22.9933C45.1135 23.0388 45.3216 23.0614 45.5273 23.0614C46.1451 23.0614 46.6157 22.8427 46.9396 22.4058ZM42.7608 18.844C42.7608 18.3274 42.7436 17.7589 42.7093 17.139H44.2019C44.2576 17.4275 44.2963 17.7225 44.3178 18.0238C44.9354 17.348 45.6431 17.0098 46.441 17.0098C46.9043 17.0098 47.3332 17.1271 47.7278 17.3617C48.1223 17.5965 48.4409 17.9667 48.6832 18.4725C48.9257 18.9785 49.0468 19.6213 49.0468 20.4005C49.0468 21.2142 48.9085 21.9096 48.6317 22.4865C48.355 23.0635 47.968 23.5004 47.4705 23.7976C46.9729 24.0945 46.398 24.2432 45.7462 24.2432C45.2742 24.2432 44.8087 24.1634 44.3499 24.0043V26.8845L42.7608 27.0202V18.844Z" fill="#6C727E"></path><path d="M54.19 22.4058C54.5139 21.9689 54.6759 21.3304 54.6759 20.4909C54.6759 19.7117 54.5418 19.1464 54.2738 18.7954C54.0056 18.4446 53.6485 18.2692 53.2024 18.2692C52.8936 18.2692 52.6084 18.3425 52.3468 18.4888C52.0849 18.6352 51.8363 18.831 51.6004 19.0765V22.8094C51.7591 22.8869 51.9434 22.9483 52.1538 22.9933C52.3638 23.0388 52.5718 23.0614 52.7778 23.0614C53.3954 23.0614 53.8662 22.8427 54.19 22.4058ZM50.011 18.844C50.011 18.3274 49.9938 17.7589 49.9596 17.139H51.4524C51.5081 17.4275 51.5468 17.7225 51.5683 18.0238C52.1859 17.348 52.8936 17.0098 53.6915 17.0098C54.1548 17.0098 54.5834 17.1271 54.9783 17.3617C55.3728 17.5965 55.6914 17.9667 55.9339 18.4725C56.1759 18.9785 56.2973 19.6213 56.2973 20.4005C56.2973 21.2142 56.1587 21.9096 55.8822 22.4865C55.6055 23.0635 55.2183 23.5004 54.721 23.7976C54.2232 24.0945 53.6485 24.2432 52.9965 24.2432C52.5246 24.2432 52.0592 24.1634 51.6004 24.0043V26.8845L50.011 27.0202V18.844Z" fill="#6C727E"></path><path d="M59.2166 23.6651C58.5302 23.2843 58.0027 22.7384 57.6339 22.028C57.2647 21.3175 57.0805 20.4779 57.0805 19.5092C57.0805 18.4588 57.2928 17.5663 57.7175 16.8321C58.1421 16.0982 58.7202 15.547 59.4513 15.1789C60.1828 14.8108 61.003 14.6267 61.9126 14.6267C62.4486 14.6267 62.9602 14.6859 63.4471 14.8043C63.9338 14.9228 64.3873 15.0852 64.8079 15.292L64.4024 16.5189C63.5574 16.1143 62.751 15.9119 61.9834 15.9119C61.3356 15.9119 60.7683 16.0508 60.2816 16.3285C59.7947 16.6063 59.416 17.0142 59.1459 17.5524C58.8755 18.0906 58.7406 18.7407 58.7406 19.5027C58.7406 20.1703 58.8445 20.7621 59.0523 21.2788C59.2606 21.7954 59.5888 22.2046 60.037 22.5059C60.4852 22.8073 61.0503 22.9579 61.7324 22.9579C62.0412 22.9579 62.35 22.9321 62.6588 22.8805C62.9676 22.8289 63.2573 22.7535 63.5274 22.6544V20.7621H61.3721V19.5221H65.0717V23.4618C64.5397 23.7114 63.981 23.9032 63.3956 24.0365C62.8099 24.1699 62.2278 24.2366 61.6486 24.2366C60.7135 24.2366 59.9027 24.0464 59.2166 23.6651Z" fill="#6C727E"></path><path d="M69.7669 22.8158C70.097 22.6567 70.3673 22.4584 70.5775 22.2217V20.93C70.1442 20.8828 69.7903 20.859 69.5159 20.859C68.8596 20.859 68.4058 20.9655 68.1553 21.1788C67.9041 21.3916 67.7787 21.6792 67.7787 22.0408C67.7787 22.3855 67.8699 22.6405 68.0522 22.8062C68.2346 22.972 68.4822 23.0548 68.7952 23.0548C69.1125 23.0548 69.4364 22.9752 69.7669 22.8158ZM70.7191 24.1075C70.6632 23.8362 70.6266 23.5285 70.6096 23.184C70.3652 23.4769 70.0468 23.7255 69.6541 23.93C69.2619 24.1345 68.8188 24.2366 68.3255 24.2366C67.9266 24.2366 67.5632 24.1581 67.2348 24.0009C66.9071 23.8439 66.6463 23.607 66.4533 23.2904C66.2603 22.9741 66.1636 22.5878 66.1636 22.1312C66.1636 21.4554 66.4059 20.916 66.8907 20.5134C67.3755 20.1109 68.184 19.9096 69.3164 19.9096C69.741 19.9096 70.1614 19.9399 70.5775 20V19.8645C70.5775 19.2488 70.4466 18.815 70.1849 18.563C69.9233 18.3113 69.548 18.1853 69.0592 18.1853C68.7202 18.1853 68.3578 18.2349 67.9717 18.3338C67.5857 18.433 67.2467 18.5513 66.9551 18.689L66.7041 17.5265C66.9872 17.3973 67.3604 17.2789 67.8237 17.1713C68.2871 17.0638 68.7759 17.0098 69.2906 17.0098C69.8912 17.0098 70.4015 17.1013 70.8219 17.2842C71.2423 17.4673 71.5704 17.7817 71.8064 18.2271C72.0423 18.673 72.1602 19.2725 72.1602 20.0259V22.7964C72.1602 23.085 72.1772 23.5222 72.2117 24.1075H70.7191Z" fill="#6C727E"></path><path d="M73.3795 22.4348V14.2005L74.9622 14.0713V22.1506C74.9622 22.4478 75.0126 22.6575 75.1133 22.7804C75.2141 22.9029 75.3739 22.9645 75.5928 22.9645C75.6914 22.9645 75.8308 22.9409 76.0108 22.8935L76.1974 24.0365C76.0472 24.0969 75.864 24.1453 75.6476 24.1818C75.4308 24.2183 75.226 24.2366 75.033 24.2366C73.9304 24.2366 73.3795 23.6361 73.3795 22.4348Z" fill="#6C727E"></path><path d="M77.3364 22.4348V14.2005L78.9191 14.0713V22.1506C78.9191 22.4478 78.9695 22.6575 79.0702 22.7804C79.1712 22.9029 79.331 22.9645 79.5497 22.9645C79.6483 22.9645 79.7877 22.9409 79.968 22.8935L80.1546 24.0365C80.0043 24.0969 79.8209 24.1453 79.6045 24.1818C79.3878 24.2183 79.1829 24.2366 78.9899 24.2366C77.8875 24.2366 77.3364 23.6361 77.3364 22.4348Z" fill="#6C727E"></path><path d="M85.1142 19.8128C85.0823 19.2574 84.9442 18.8409 84.6955 18.563C84.4469 18.2855 84.1132 18.1464 83.6988 18.1464C83.295 18.1464 82.9591 18.2865 82.6914 18.5663C82.4236 18.8463 82.2472 19.2617 82.1664 19.8128H85.1142ZM86.6636 20.8267H82.1218C82.194 22.2864 82.8869 23.0161 84.2003 23.0161C84.5255 23.0161 84.8592 22.9763 85.2014 22.8967C85.5414 22.8169 85.8687 22.7105 86.1811 22.5769L86.5297 23.6683C85.7518 24.0474 84.8804 24.2366 83.9113 24.2366C83.1717 24.2366 82.5511 24.0969 82.0453 23.817C81.5373 23.5371 81.1569 23.1345 80.9018 22.6091C80.6472 22.0841 80.5195 21.4511 80.5195 20.7105C80.5195 19.9399 80.6547 19.2767 80.9252 18.7213C81.1951 18.1659 81.5713 17.7419 82.0538 17.449C82.5362 17.1563 83.0931 17.0098 83.7243 17.0098C84.381 17.0098 84.9272 17.1638 85.3671 17.4717C85.8071 17.7794 86.1322 18.1896 86.3448 18.7019C86.5573 19.2145 86.6636 19.7805 86.6636 20.4005V20.8267Z" fill="#6C727E"></path><path d="M87.8665 18.8892C87.8665 18.5061 87.8474 17.9228 87.8134 17.139H89.3011C89.3266 17.3328 89.3499 17.5642 89.3755 17.8334C89.3988 18.1024 89.4137 18.3209 89.4222 18.4888C89.6071 18.1831 89.7878 17.9259 89.9663 17.7171C90.1448 17.5081 90.3531 17.3382 90.5911 17.2067C90.8292 17.0755 91.0991 17.0098 91.4051 17.0098C91.6495 17.0098 91.8578 17.0357 92.0342 17.0874L91.8344 18.4695C91.6814 18.4221 91.5093 18.3984 91.3201 18.3984C90.9482 18.3984 90.6209 18.4942 90.3425 18.6859C90.0641 18.8773 89.7665 19.1927 89.4477 19.6319V24.1075H87.8665V18.8892Z" fill="#6C727E"></path><path d="M92.9269 26.9588C92.6952 26.918 92.5039 26.8717 92.3552 26.8201L92.6442 25.6576C92.7505 25.6875 92.8865 25.7167 93.0501 25.7447C93.2117 25.7729 93.3668 25.7867 93.5135 25.7867C94.2169 25.7867 94.744 25.3323 95.0947 24.424L95.1988 24.1656L92.6378 17.139H94.3423L95.6303 21.0656C95.8385 21.7374 95.9746 22.252 96.0341 22.6091C96.1552 22.1054 96.2955 21.6017 96.4591 21.098L97.7662 17.139H99.3666L96.8141 24.198C96.5739 24.8653 96.3125 25.4034 96.0341 25.8125C95.7556 26.2215 95.4262 26.525 95.0479 26.7232C94.6675 26.921 94.2106 27.0202 93.6729 27.0202C93.4072 27.0202 93.1585 26.9999 92.9269 26.9588Z" fill="#6C727E"></path><path d="M15.7714 17.6205H16.5812L16.175 16.6724L15.7714 17.6205Z" fill="#6C727E"></path><path fill-rule="evenodd" clip-rule="evenodd" d="M21.4728 5.8667H12.6434C8.48419 5.8667 6.96289 7.39374 6.96289 11.5687V20.4315C6.96289 24.6064 8.48419 26.1334 12.6434 26.1334H21.4701C25.6293 26.1334 27.1534 24.6064 27.1534 20.4315V11.5687C27.1534 7.39374 25.6321 5.8667 21.4728 5.8667ZM15.5721 18.0984L15.3319 18.65H14.7851L15.9481 16.0018H16.4205L17.5788 18.65H17.0173L16.7801 18.0984H15.5721ZM24.3715 18.6482H24.9001V16.0018H24.3715V18.6482ZM22.2681 17.511H23.2421V17.0288H22.2681V16.4863H23.6821V16.0034H21.7397V18.6498H23.7331V18.1671H22.2681V17.511ZM20.1681 17.8238L19.5687 16.0017H19.1318L18.5324 17.8238L17.9492 16.003H17.3792L18.2993 18.6513H18.7426L19.3428 16.9117L19.9428 18.6513H20.3902L21.3079 16.003H20.7525L20.1681 17.8238ZM13.9783 17.5184C13.9783 17.9492 13.7652 18.1794 13.3781 18.1794C12.989 18.1794 12.7748 17.9427 12.7748 17.5V16.0033H12.2392V17.5184C12.2392 18.2638 12.6517 18.6911 13.3709 18.6911C14.0971 18.6911 14.5137 18.2556 14.5137 17.4965V16.0017H13.9783V17.5184ZM10.9612 16.0018H11.4966V18.6514H10.9612V17.5755H9.7517V18.6514H9.21613V16.0018H9.7517V17.0707H10.9612V16.0018ZM13.6974 9.25465C13.6974 11.1147 15.2051 12.6281 17.0581 12.6281C18.9112 12.6281 20.4189 11.1147 20.4189 9.25465H19.9441C19.9441 10.852 18.6496 12.1515 17.0581 12.1515C15.4667 12.1515 14.1722 10.852 14.1722 9.25465H13.6974Z" fill="#6C727E"></path><path d="M37.1768 9.49538C37.1768 9.99041 37.0863 10.416 36.9052 10.7722C36.7241 11.1269 36.4758 11.4 36.1604 11.5917C35.8464 11.7819 35.4895 11.877 35.0895 11.877C34.6881 11.877 34.3296 11.7819 34.0142 11.5917C33.7003 11.4 33.4528 11.1261 33.2717 10.7699C33.0906 10.4138 33 9.9889 33 9.49538C33 9.00036 33.0906 8.57551 33.2717 8.22084C33.4528 7.86466 33.7003 7.59149 34.0142 7.40132C34.3296 7.20965 34.6881 7.11381 35.0895 7.11381C35.4895 7.11381 35.8464 7.20965 36.1604 7.40132C36.4758 7.59149 36.7241 7.86466 36.9052 8.22084C37.0863 8.57551 37.1768 9.00036 37.1768 9.49538ZM36.4841 9.49538C36.4841 9.11808 36.423 8.80038 36.3007 8.5423C36.18 8.28271 36.014 8.08651 35.8027 7.9537C35.5929 7.81938 35.3552 7.75222 35.0895 7.75222C34.8224 7.75222 34.5839 7.81938 34.3742 7.9537C34.1644 8.08651 33.9984 8.28271 33.8761 8.5423C33.7554 8.80038 33.695 9.11808 33.695 9.49538C33.695 9.87269 33.7554 10.1911 33.8761 10.4507C33.9984 10.7088 34.1644 10.905 34.3742 11.0393C34.5839 11.1721 34.8224 11.2385 35.0895 11.2385C35.3552 11.2385 35.5929 11.1721 35.8027 11.0393C36.014 10.905 36.18 10.7088 36.3007 10.4507C36.423 10.1911 36.4841 9.87269 36.4841 9.49538Z" fill="#6C727E"></path><path d="M37.6849 7.77939V7.1772H41.2731V7.77939H39.8265V11.8136H39.1292V7.77939H37.6849Z" fill="#6C727E"></path><path d="M44.8803 11.8136L43.3228 9.73535H42.8293V11.8136H42.1297V7.1772H42.8293V9.13543H43.0579L44.8102 7.1772H45.6636L43.8095 9.25315L45.7338 11.8136H44.8803Z" fill="#6C727E"></path><path d="M46.4456 11.8136V7.1772H48.0982C48.4589 7.1772 48.7578 7.24285 48.9947 7.37416C49.2317 7.50546 49.409 7.68506 49.5267 7.91295C49.6444 8.13934 49.7033 8.3944 49.7033 8.67813C49.7033 8.96338 49.6437 9.21995 49.5245 9.44784C49.4067 9.67423 49.2286 9.85383 48.9902 9.98664C48.7532 10.1179 48.4552 10.1836 48.096 10.1836H46.9595V9.59047H48.0326C48.2605 9.59047 48.4453 9.55123 48.5872 9.47275C48.7291 9.39276 48.8332 9.28409 48.8996 9.14675C48.966 9.00941 48.9992 8.85321 48.9992 8.67813C48.9992 8.50306 48.966 8.34761 48.8996 8.21178C48.8332 8.07595 48.7283 7.96955 48.5849 7.89258C48.4431 7.81561 48.2559 7.77712 48.0235 7.77712H47.1451V11.8136H46.4456Z" fill="#6C727E"></path><path d="M54.6145 9.49538C54.6145 9.99041 54.524 10.416 54.3429 10.7722C54.1618 11.1269 53.9135 11.4 53.5981 11.5917C53.2841 11.7819 52.9272 11.877 52.5273 11.877C52.1258 11.877 51.7674 11.7819 51.4519 11.5917C51.138 11.4 50.8905 11.1261 50.7094 10.7699C50.5283 10.4138 50.4377 9.9889 50.4377 9.49538C50.4377 9.00036 50.5283 8.57551 50.7094 8.22084C50.8905 7.86466 51.138 7.59149 51.4519 7.40132C51.7674 7.20965 52.1258 7.11381 52.5273 7.11381C52.9272 7.11381 53.2841 7.20965 53.5981 7.40132C53.9135 7.59149 54.1618 7.86466 54.3429 8.22084C54.524 8.57551 54.6145 9.00036 54.6145 9.49538ZM53.9218 9.49538C53.9218 9.11808 53.8607 8.80038 53.7384 8.5423C53.6177 8.28271 53.4517 8.08651 53.2404 7.9537C53.0306 7.81938 52.7929 7.75222 52.5273 7.75222C52.2601 7.75222 52.0217 7.81938 51.8119 7.9537C51.6021 8.08651 51.4361 8.28271 51.3138 8.5423C51.1931 8.80038 51.1327 9.11808 51.1327 9.49538C51.1327 9.87269 51.1931 10.1911 51.3138 10.4507C51.4361 10.7088 51.6021 10.905 51.8119 11.0393C52.0217 11.1721 52.2601 11.2385 52.5273 11.2385C52.7929 11.2385 53.0306 11.1721 53.2404 11.0393C53.4517 10.905 53.6177 10.7088 53.7384 10.4507C53.8607 10.1911 53.9218 9.87269 53.9218 9.49538Z" fill="#6C727E"></path><path d="M55.5504 7.1772H56.2432V10.582H56.2862L58.6451 7.1772H59.2926V11.8136H58.5931V8.41326H58.5501L56.1956 11.8136H55.5504V7.1772ZM57.8664 6H58.4233C58.4233 6.25506 58.3327 6.46258 58.1516 6.62256C57.972 6.78103 57.729 6.86026 57.4227 6.86026C57.1178 6.86026 56.8756 6.78103 56.696 6.62256C56.5164 6.46258 56.4266 6.25506 56.4266 6H56.9812C56.9812 6.11319 57.0144 6.21356 57.0808 6.30109C57.1472 6.38712 57.2612 6.43013 57.4227 6.43013C57.5811 6.43013 57.6943 6.38712 57.7622 6.30109C57.8317 6.21507 57.8664 6.1147 57.8664 6Z" fill="#6C727E"></path><path d="M60.1481 7.77939V7.1772H63.7364V7.77939H62.2898V11.8136H61.5925V7.77939H60.1481Z" fill="#6C727E"></path><path d="M64.593 11.8136V7.1772H67.4998V7.77939H65.2926V9.19203H67.3482V9.79195H65.2926V11.2114H67.527V11.8136H64.593Z" fill="#6C727E"></path><path d="M70.2489 11.8136V7.1772H71.9468C72.2758 7.1772 72.5482 7.23153 72.764 7.3402C72.9799 7.44735 73.1413 7.593 73.2485 7.77712C73.3557 7.95974 73.4092 8.16575 73.4092 8.39515C73.4092 8.58833 73.3738 8.75133 73.3028 8.88414C73.2319 9.01545 73.1368 9.12109 73.0176 9.20108C72.8999 9.27956 72.7701 9.33691 72.6282 9.37314V9.41841C72.7821 9.42596 72.9323 9.47576 73.0787 9.56783C73.2266 9.65838 73.3489 9.78742 73.4455 9.95495C73.542 10.1225 73.5903 10.3262 73.5903 10.5662C73.5903 10.8031 73.5345 11.0159 73.4228 11.2046C73.3126 11.3917 73.1421 11.5404 72.9112 11.6506C72.6803 11.7592 72.3852 11.8136 72.026 11.8136H70.2489ZM70.9484 11.2136H71.9581C72.2932 11.2136 72.5331 11.1487 72.678 11.019C72.8229 10.8892 72.8953 10.7269 72.8953 10.5322C72.8953 10.3858 72.8584 10.2515 72.7844 10.1293C72.7105 10.007 72.6048 9.90967 72.4675 9.83722C72.3316 9.76478 72.1701 9.72856 71.983 9.72856H70.9484V11.2136ZM70.9484 9.18297H71.8857C72.0426 9.18297 72.1837 9.15279 72.309 9.09242C72.4358 9.03205 72.5361 8.94753 72.6101 8.83887C72.6856 8.72869 72.7233 8.5989 72.7233 8.44949C72.7233 8.25781 72.6561 8.09708 72.5218 7.96729C72.3875 7.83749 72.1815 7.77259 71.9038 7.77259H70.9484V9.18297Z" fill="#6C727E"></path></svg>