<svg width="108" height="32" fill="none" xmlns="http://www.w3.org/2000/svg"><path d="M0.5 6C0.5 2.96243 2.96243 0.5 6 0.5H102C105.038 0.5 107.5 2.96243 107.5 6V26C107.5 29.0376 105.038 31.5 102 31.5H6C2.96244 31.5 0.5 29.0376 0.5 26V6Z" stroke="#6C727E"></path><path d="M54.5092 17.4009C52.6276 17.4009 51.094 18.8321 51.094 20.8033C51.094 22.7625 52.6276 24.2057 54.5092 24.2057C56.3916 24.2057 57.9252 22.7625 57.9252 20.8033C57.9244 18.8321 56.3908 17.4009 54.5092 17.4009ZM54.5092 22.8665C53.478 22.8665 52.5892 22.0161 52.5892 20.8041C52.5892 19.5793 53.4788 18.7417 54.5092 18.7417C55.5404 18.7417 56.4292 19.5793 56.4292 20.8041C56.4292 22.0153 55.5404 22.8665 54.5092 22.8665ZM47.058 17.4009C45.1764 17.4009 43.6428 18.8321 43.6428 20.8033C43.6428 22.7625 45.1764 24.2057 47.058 24.2057C48.9404 24.2057 50.474 22.7625 50.474 20.8033C50.474 18.8321 48.9404 17.4009 47.058 17.4009ZM47.058 22.8665C46.0268 22.8665 45.138 22.0161 45.138 20.8041C45.138 19.5793 46.0276 18.7417 47.058 18.7417C48.0892 18.7417 48.978 19.5793 48.978 20.8041C48.9788 22.0153 48.0892 22.8665 47.058 22.8665ZM38.1956 18.4457V19.8889H41.65C41.5468 20.7009 41.2764 21.2937 40.8636 21.7057C40.3612 22.2081 39.5748 22.7625 38.1956 22.7625C36.0692 22.7625 34.4068 21.0481 34.4068 18.9217C34.4068 16.7953 36.0692 15.0809 38.1956 15.0809C39.3428 15.0809 40.1804 15.5321 40.7988 16.1121L41.8172 15.0937C40.9532 14.2689 39.8068 13.6377 38.1956 13.6377C35.2828 13.6377 32.834 16.0089 32.834 18.9217C32.834 21.8345 35.2828 24.2057 38.1956 24.2057C39.7676 24.2057 40.954 23.6897 41.8812 22.7233C42.8348 21.7697 43.1316 20.4289 43.1316 19.3465C43.1316 19.0121 43.106 18.7025 43.054 18.4449H38.1956V18.4457ZM74.442 19.5665C74.1588 18.8065 73.2948 17.4009 71.5292 17.4009C69.7764 17.4009 68.3196 18.7801 68.3196 20.8033C68.3196 22.7105 69.7636 24.2057 71.6964 24.2057C73.2556 24.2057 74.158 23.2521 74.5324 22.6977L73.3724 21.9241C72.986 22.4913 72.4572 22.8649 71.6964 22.8649C70.9364 22.8649 70.3948 22.5169 70.0468 21.8337L74.5964 19.9521L74.442 19.5665ZM69.802 20.7009C69.7636 19.3857 70.8204 18.7161 71.5812 18.7161C72.174 18.7161 72.6764 19.0129 72.8444 19.4377L69.802 20.7009ZM66.1036 24.0001H67.598V13.9993H66.1036V24.0001ZM63.654 18.1617H63.6028C63.2676 17.7617 62.6228 17.4009 61.8116 17.4009C60.11 17.4009 58.5508 18.8961 58.5508 20.8169C58.5508 22.7241 60.11 24.2065 61.8116 24.2065C62.6236 24.2065 63.2676 23.8457 63.6028 23.4337H63.654V23.9233C63.654 25.2249 62.958 25.9209 61.8372 25.9209C60.922 25.9209 60.3548 25.2641 60.1228 24.7097L58.8212 25.2513C59.1948 26.1529 60.1868 27.2617 61.8372 27.2617C63.59 27.2617 65.0724 26.2305 65.0724 23.7169V17.6081H63.6548V18.1617H63.654ZM61.9404 22.8665C60.9092 22.8665 60.046 22.0025 60.046 20.8169C60.046 19.6177 60.9092 18.7417 61.9404 18.7417C62.958 18.7417 63.7572 19.6177 63.7572 20.8169C63.7572 22.0025 62.958 22.8665 61.9404 22.8665ZM81.4452 13.9993H77.8684V24.0001H79.3604V20.2113H81.4444C83.0988 20.2113 84.726 19.0137 84.726 17.1057C84.726 15.1977 83.0996 13.9993 81.4452 13.9993ZM81.4836 18.8193H79.3604V15.3913H81.4836C82.5996 15.3913 83.2332 16.3153 83.2332 17.1057C83.2332 17.8801 82.5996 18.8193 81.4836 18.8193ZM90.7092 17.3833C89.6284 17.3833 88.5092 17.8593 88.046 18.9145L89.3708 19.4673C89.654 18.9145 90.182 18.7337 90.7348 18.7337C91.5068 18.7337 92.2916 19.1969 92.3044 20.0201V20.1233C92.034 19.9689 91.4548 19.7377 90.7476 19.7377C89.3196 19.7377 87.8652 20.5225 87.8652 21.9889C87.8652 23.3273 89.0364 24.1889 90.3484 24.1889C91.3516 24.1889 91.9052 23.7385 92.2524 23.2105H92.3036V23.9825H93.7452V20.1481C93.746 18.3737 92.4196 17.3833 90.7092 17.3833ZM90.5284 22.8641C90.0404 22.8641 89.358 22.6193 89.358 22.0145C89.358 21.2425 90.2076 20.9465 90.9412 20.9465C91.5964 20.9465 91.906 21.0881 92.3044 21.2809C92.1884 22.2081 91.3908 22.8641 90.5284 22.8641ZM98.9948 17.6017L97.2836 21.9377H97.2324L95.4564 17.6017H93.8484L96.5116 23.6617L94.9932 27.0329H96.55L100.655 17.6017H98.9948ZM85.55 24.0001H87.042V13.9993H85.55V24.0001Z" fill="#6C727E"></path><path fill-rule="evenodd" clip-rule="evenodd" d="M20.5939 11.334L11.4662 6.04047C11.1181 5.83199 10.7119 5.71167 10.2771 5.71167C9.4171 5.71167 8.6565 6.21129 8.26189 6.92211L8.3531 7.0133L16.6344 15.2928L20.5939 11.334ZM7.97559 8.04993V23.9499L15.9272 15.9998L7.97559 8.04993ZM8.26191 25.0777C8.65658 25.7886 9.41728 26.2882 10.2771 26.2882C10.7025 26.2882 11.1019 26.1732 11.4443 25.9713L11.4715 25.9554L20.6096 20.6813L16.6344 16.7069L8.3531 24.9865L8.26191 25.0777ZM21.5063 20.1637L25.1743 18.0467C25.8962 17.657 26.3862 16.8961 26.3862 16.0185C26.3862 15.1473 25.9027 14.3901 25.1881 13.9992L25.1799 13.9936L21.4891 11.8531L17.3416 15.9998L21.5063 20.1637Z" fill="#6C727E"></path><path d="M34.7834 7.54799C34.7928 8.30358 34.64 8.91301 34.3261 9.37574H36.7627V5.7731H34.7834V7.54799ZM33.6726 10.9761H33.0804V9.37574H33.5517C33.969 9.01936 34.173 8.41056 34.1646 7.54799V5.18635H37.3824V9.37574H37.9206V10.9761H37.3282V9.96249H33.6726V10.9761Z" fill="#6C727E"></path><path d="M34.7834 7.54799L34.7029 7.54894L34.7036 7.61326C34.7032 8.32816 34.5526 8.89907 34.2592 9.33123L34.1751 9.45533H36.8429V5.69349H34.7029V7.54894L34.7834 7.54799L34.8636 7.54798V5.85269H36.6822V9.29613H34.326L34.3261 9.37574L34.3926 9.41991C34.7085 8.95408 34.8642 8.34958 34.8642 7.61326L34.8636 7.54798L34.7834 7.54799ZM33.6726 10.9761L33.6724 10.8965H33.1607V9.45533H33.5814L33.604 9.43607C34.0383 9.0648 34.2451 8.44629 34.2451 7.6002L34.2448 7.54734V5.26594H37.302V9.45533H37.8402V10.8965H37.4084V9.88288H33.5921V10.9761L33.6726 10.9761L33.7528 10.9761V10.0421H37.2478V11.0557H38.0008V9.29613H37.4626V5.10674H34.0841V7.5483L34.0844 7.6002C34.0841 8.42393 33.8827 8.98894 33.4992 9.31507L33.5517 9.37574L33.5516 9.29613H33V11.0557H33.7528V10.9761L33.6726 10.9761Z" fill="#6C727E"></path><path d="M39.6736 8.94588C40.0307 9.30377 40.4669 9.48256 40.9831 9.48256C41.4992 9.48256 41.936 9.30377 42.2921 8.94588C42.6493 8.58799 42.8281 8.13052 42.8281 7.57489C42.8281 7.01927 42.6493 6.56179 42.2921 6.2039C41.936 5.84601 41.4992 5.66722 40.9831 5.66722C40.4669 5.66722 40.0307 5.84601 39.6736 6.2039C39.3174 6.56179 39.1386 7.01927 39.1386 7.57489C39.1386 8.13052 39.3174 8.58799 39.6736 8.94588ZM42.7503 9.34573C42.2764 9.82859 41.6875 10.0696 40.9831 10.0696C40.2786 10.0696 39.6893 9.82859 39.2164 9.34573C38.7426 8.86342 38.5063 8.273 38.5063 7.57489C38.5063 6.87678 38.7426 6.28629 39.2164 5.80406C39.6893 5.32111 40.2786 5.07984 40.9831 5.07984C41.6834 5.07984 42.2711 5.32238 42.7471 5.80716C43.2225 6.29194 43.4603 6.88116 43.4603 7.57489C43.4603 8.273 43.2235 8.86342 42.7503 9.34573Z" fill="#6C727E"></path><path d="M39.6736 8.94588L39.6166 9.00161C39.9866 9.37383 40.4481 9.56289 40.9832 9.56193C41.5179 9.56289 41.9804 9.37383 42.3494 9.00161C42.7219 8.62907 42.9092 8.14708 42.9085 7.57466C42.9092 7.00224 42.7219 6.52025 42.3494 6.14771C41.9804 5.77549 41.5179 5.58643 40.9832 5.58739C40.4481 5.58643 39.9866 5.77549 39.6166 6.14771C39.2451 6.52025 39.0578 7.00224 39.0584 7.57466C39.0578 8.14708 39.2451 8.62907 39.6166 9.00161L39.6736 8.94588L39.7312 8.88969C39.3903 8.54605 39.22 8.11381 39.2191 7.57466C39.22 7.03551 39.3903 6.60327 39.7312 6.25963C40.0751 5.91607 40.4855 5.74755 40.9832 5.74659C41.4805 5.74755 41.8922 5.91607 42.2351 6.25963C42.5769 6.60327 42.747 7.03551 42.7479 7.57466C42.747 8.11381 42.5769 8.54605 42.2351 8.88969C41.8922 9.23325 41.4805 9.40177 40.9832 9.40273C40.4855 9.40177 40.0751 9.23325 39.7312 8.88969L39.6736 8.94588ZM42.7503 9.34573L42.693 9.29017C42.2326 9.75783 41.6691 9.98884 40.9832 9.98979C40.2969 9.98884 39.7337 9.75783 39.2739 9.29017C38.8145 8.82091 38.5877 8.25502 38.5868 7.57466C38.5877 6.8943 38.8145 6.32841 39.2739 5.85915C39.7337 5.39149 40.2969 5.16016 40.9832 5.15921C41.665 5.16016 42.227 5.39244 42.6899 5.86257C43.1511 6.33398 43.3793 6.89899 43.3802 7.57466C43.3793 8.25502 43.1518 8.82091 42.693 9.29017L42.7503 9.34573L42.8081 9.40082C43.2952 8.90521 43.5415 8.29044 43.5408 7.57466C43.5415 6.86294 43.2945 6.24944 42.805 5.75161C42.3155 5.25186 41.7024 4.99913 40.9832 5C40.2602 4.99913 39.6452 5.25067 39.1588 5.7485C38.6708 6.24442 38.4255 6.85888 38.4261 7.57466C38.4255 8.29044 38.6708 8.90521 39.1588 9.40114C39.6452 9.89897 40.2602 10.1496 40.9832 10.149C41.7058 10.1496 42.3208 9.89865 42.8081 9.40082L42.7503 9.34573Z" fill="#6C727E"></path><path d="M46.5779 10.0696C45.8688 10.0696 45.2742 9.83178 44.794 9.35568C44.313 8.87997 44.0739 8.2863 44.0739 7.57489C44.0739 6.86341 44.313 6.26981 44.794 5.79411C45.2742 5.318 45.8688 5.07984 46.5779 5.07984C47.3043 5.07984 47.8949 5.34013 48.3483 5.86034L47.9169 6.27419C47.5899 5.86933 47.1427 5.66722 46.5779 5.66722C46.0523 5.66722 45.6089 5.8429 45.2481 6.19427C44.8866 6.54563 44.7062 7.00589 44.7062 7.57489C44.7062 8.14389 44.8866 8.60447 45.2481 8.95551C45.6089 9.30688 46.0523 9.48256 46.5779 9.48256C47.1569 9.48256 47.6502 9.25148 48.059 8.78915L48.4895 9.21574C48.2693 9.47818 47.9937 9.68619 47.6611 9.83918C47.3294 9.99281 46.9677 10.0696 46.5779 10.0696Z" fill="#6C727E"></path><path d="M46.5779 10.0696L46.5779 9.98979C45.8867 9.98884 45.3171 9.7603 44.8508 9.29916C44.3848 8.83739 44.1548 8.26839 44.1542 7.57466C44.1548 6.88093 44.3848 6.31193 44.8508 5.85016C45.3171 5.3887 45.8867 5.16016 46.5779 5.15921C47.2852 5.16048 47.8475 5.4086 48.2874 5.91201L48.3483 5.86034L48.2925 5.80287L47.861 6.21704L47.9169 6.27419L47.9796 6.22421C47.6388 5.80072 47.1616 5.58619 46.5779 5.58739C46.0341 5.58675 45.5662 5.77183 45.1919 6.13712C44.8138 6.50377 44.6248 6.98942 44.6258 7.57466C44.6248 8.1599 44.8138 8.64619 45.1919 9.0122C45.5662 9.37749 46.0341 9.56257 46.5779 9.56193C47.1788 9.56289 47.6994 9.31843 48.1192 8.84145L48.059 8.78915L48.0021 8.84519L48.4327 9.27178L48.4895 9.21574L48.4276 9.16487C48.2149 9.41793 47.9501 9.61821 47.6272 9.76683C47.3062 9.91545 46.9573 9.98948 46.5779 9.98979L46.5779 10.0696L46.5779 10.149C46.9783 10.149 47.3524 10.07 47.695 9.91115C48.0376 9.75377 48.3232 9.53829 48.5513 9.26653L48.598 9.21089L48.0549 8.6723L47.9984 8.73638C47.6011 9.18446 47.1349 9.40177 46.5779 9.40273C46.0702 9.40177 45.6519 9.23572 45.3045 8.89837C44.9593 8.56252 44.7871 8.1275 44.7865 7.57466C44.7871 7.02182 44.9591 6.58743 45.3043 6.25095C45.6517 5.9136 46.0702 5.74755 46.5779 5.74659C47.1236 5.74787 47.5406 5.93756 47.8541 6.32371L47.9093 6.39217L48.4041 5.91734L48.4587 5.86504L48.4092 5.8082C47.9425 5.27089 47.3234 4.99913 46.5779 5C45.8505 4.99937 45.2308 5.24725 44.7372 5.7376C44.2411 6.22699 43.9926 6.84582 43.9935 7.57466C43.9926 8.3035 44.2411 8.92233 44.7372 9.41204C45.2308 9.90207 45.8505 10.1496 46.5779 10.149L46.5779 10.0696Z" fill="#6C727E"></path><path d="M50.9943 9.96258H50.3747V5.77319H49.0285V5.18644H52.3405V5.77319H50.9943V9.96258Z" fill="#6C727E"></path><path d="M50.9943 9.96258L50.9944 9.88307H50.4551V5.69368H49.1089V5.26614H52.2602V5.69368H50.9141V9.96268L50.9943 9.96258L51.0747 9.96268V5.85289H52.4209V5.10693H48.9482V5.85289H50.2944V10.0423H51.0747V9.96268L50.9943 9.96258Z" fill="#6C727E"></path><path d="M56.5929 5.18682L54.7691 9.21574C54.5171 9.78513 54.1435 10.0696 53.6452 10.0696C53.497 10.0696 53.3376 10.0342 53.1666 9.96296L53.3282 9.3958C53.4317 9.45391 53.5394 9.48256 53.6514 9.48256C53.7951 9.48256 53.9065 9.45486 53.985 9.39954C54.0634 9.34389 54.1362 9.24216 54.2037 9.0957L54.3787 8.71512L52.7565 5.18682H53.4835L54.675 7.92841H54.7017L55.8655 5.18682H56.5929Z" fill="#6C727E"></path><path d="M56.5929 5.18682L56.5195 5.15394L54.6957 9.18317C54.4478 9.73505 54.1089 9.98699 53.6452 9.98978C53.5099 9.98978 53.3611 9.95746 53.1977 9.88932L53.1666 9.96296L53.2441 9.98445L53.4054 9.41728L53.3282 9.3958L53.289 9.46488C53.4032 9.52896 53.5253 9.56224 53.6515 9.56192C53.8049 9.56192 53.9335 9.53302 54.0317 9.46393C54.1284 9.3946 54.2059 9.28172 54.2768 9.12872L54.4519 8.74814L54.467 8.71487L52.8814 5.26618H53.4309L54.622 8.00776H54.755L55.9188 5.26618H56.5929L56.5929 5.18682L56.5929 5.10698H55.8122L54.6273 7.89743L54.7017 7.92841L54.7017 7.84856H54.675L54.675 7.92841L54.7488 7.8968L53.5366 5.10698H52.6316L54.2903 8.71487L54.1306 9.06249C54.0669 9.20212 53.9985 9.29231 53.9382 9.33426C53.8796 9.37629 53.7851 9.40303 53.6515 9.40271C53.5532 9.40271 53.4607 9.37812 53.3677 9.32622L53.2786 9.27646L53.0895 9.94098L53.07 10.0087L53.1356 10.0361C53.3141 10.1104 53.4839 10.149 53.6452 10.149C54.1776 10.1515 54.5868 9.83368 54.8426 9.24757L56.7168 5.10698H56.5929L56.5929 5.18682Z" fill="#6C727E"></path><path d="M57.2941 9.96258V5.18644H60.7812V9.96258H60.1616V5.77319H57.9129V9.96258H57.2941Z" fill="#6C727E"></path><path d="M57.2941 9.96258L57.3744 9.96268V5.26614H60.7006V9.88307H60.2418V5.69368H57.8325V9.88307H57.2941L57.2941 9.96258L57.2941 10.0423H57.9932V5.85289H60.0812V10.0423H60.8615V5.10693H57.2137V10.0423H57.2941L57.2941 9.96258Z" fill="#6C727E"></path><path d="M61.8848 9.96258V5.18644H62.5039V7.23405H64.9138V5.18644H65.5335V9.96258H64.9138V7.80775H62.5039V9.96258H61.8848Z" fill="#6C727E"></path><path d="M61.8848 9.96258L61.9652 9.96268V5.26614H62.4236V7.31375H64.9942V5.26614H65.4533V9.88307H64.9942V7.72824H62.4236V9.88307H61.8849L61.8848 9.96258L61.8849 10.0423H62.5843V7.88744H64.8335V10.0423H65.6139V5.10693H64.8335V7.15454H62.5843V5.10693H61.8045V10.0423H61.8849L61.8848 9.96258Z" fill="#6C727E"></path><path d="M67.5021 8.94588C67.8593 9.30377 68.2954 9.48256 68.8116 9.48256C69.3278 9.48256 69.7646 9.30377 70.1207 8.94588C70.4778 8.58799 70.6567 8.13052 70.6567 7.57489C70.6567 7.01927 70.4778 6.56179 70.1207 6.2039C69.7646 5.84601 69.3278 5.66722 68.8116 5.66722C68.2954 5.66722 67.8593 5.84601 67.5021 6.2039C67.1464 6.56179 66.9671 7.01927 66.9671 7.57489C66.9671 8.13052 67.1464 8.58799 67.5021 8.94588ZM70.5788 9.34573C70.1054 9.82859 69.5161 10.0696 68.8116 10.0696C68.1072 10.0696 67.5182 9.82859 67.045 9.34573C66.5712 8.86342 66.3349 8.273 66.3349 7.57489C66.3349 6.87678 66.5712 6.28629 67.045 5.80406C67.5182 5.32111 68.1072 5.07984 68.8116 5.07984C69.5123 5.07984 70.0997 5.32238 70.5757 5.80716C71.0511 6.29194 71.2889 6.88116 71.2889 7.57489C71.2889 8.273 71.0521 8.86342 70.5788 9.34573Z" fill="#6C727E"></path><path d="M67.5021 8.94588L67.4452 9.00161C67.8154 9.37383 68.2767 9.56289 68.8117 9.56193C69.3467 9.56289 69.8089 9.37383 70.1783 9.00161C70.5504 8.62907 70.7378 8.14708 70.7371 7.57466C70.7378 7.00224 70.5504 6.52025 70.1783 6.14771C69.8089 5.77549 69.3467 5.58643 68.8117 5.58739C68.2767 5.58643 67.8154 5.77549 67.4452 6.14771C67.0737 6.52025 66.8863 7.00224 66.8869 7.57466C66.8863 8.14708 67.0737 8.62907 67.4452 9.00161L67.5021 8.94588L67.5597 8.88969C67.2189 8.54605 67.0485 8.11381 67.0476 7.57466C67.0485 7.03551 67.2189 6.60327 67.5597 6.25963C67.9033 5.91607 68.3144 5.74755 68.8117 5.74659C69.3091 5.74755 69.7208 5.91607 70.0637 6.25963C70.4054 6.60327 70.5758 7.03551 70.5765 7.57466C70.5758 8.11381 70.4054 8.54605 70.0637 8.88969C69.7208 9.23325 69.3091 9.40177 68.8117 9.40273C68.3144 9.40177 67.9033 9.23325 67.5597 8.88969L67.5021 8.94588ZM70.5788 9.34573L70.5215 9.29017C70.0612 9.75783 69.4976 9.98884 68.8117 9.98979C68.1258 9.98884 67.5622 9.75783 67.1028 9.29017C66.6431 8.82091 66.4163 8.25502 66.4153 7.57466C66.4163 6.8943 66.6431 6.32841 67.1028 5.85915C67.5622 5.39149 68.1258 5.16016 68.8117 5.15921C69.4936 5.16016 70.0556 5.39244 70.5184 5.86257C70.9797 6.33398 71.2081 6.89899 71.2087 7.57466C71.2081 8.25502 70.9803 8.82091 70.5215 9.29017L70.5788 9.34573L70.6367 9.40082C71.124 8.90521 71.37 8.29044 71.3694 7.57466C71.37 6.86294 71.1231 6.24944 70.6336 5.75161C70.144 5.25186 69.5309 4.99913 68.8117 5C68.0887 4.99913 67.474 5.25067 66.9873 5.7485C66.4994 6.24442 66.254 6.85888 66.2546 7.57466C66.254 8.29044 66.4994 8.90521 66.9873 9.40114C67.474 9.89897 68.0887 10.1496 68.8117 10.149C69.5347 10.1496 70.1494 9.89865 70.6367 9.40082L70.5788 9.34573Z" fill="#6C727E"></path><path d="M74.44 9.37583H75.6859C75.9237 9.37583 76.1165 9.29345 76.2651 9.12835C76.4129 8.96445 76.4868 8.78407 76.4868 8.58817C76.4868 8.39259 76.4105 8.2138 76.2578 8.05149C76.106 7.88918 75.9052 7.80775 75.6586 7.80775H74.44V9.37583ZM74.44 7.23405H75.5646C75.7984 7.23405 75.9855 7.15787 76.1269 7.00392C76.2683 6.85061 76.339 6.68305 76.339 6.50052C76.339 6.31831 76.2707 6.15098 76.1333 6.00053C75.9968 5.84905 75.816 5.77319 75.5919 5.77319H74.44V7.23405ZM73.8215 9.96258V5.18644H75.5646C75.9413 5.18644 76.2683 5.31022 76.5438 5.55643C76.8201 5.80368 76.9583 6.11365 76.9583 6.48714C76.9583 6.71377 76.8989 6.91405 76.7792 7.08758C76.6611 7.26104 76.5028 7.3923 76.3052 7.48122V7.50765C76.5422 7.58757 76.7382 7.7256 76.8908 7.92118C77.0427 8.11708 77.1198 8.34411 77.1198 8.60186C77.1198 8.99303 76.9752 9.31764 76.6852 9.57548C76.396 9.83355 76.0538 9.96258 75.6586 9.96258H73.8215Z" fill="#6C727E"></path><path d="M74.44 9.37583L74.44 9.45553H75.6859C75.9422 9.45648 76.1631 9.36319 76.3246 9.18154C76.4836 9.00649 76.568 8.80438 76.5672 8.58826C76.568 8.3719 76.4804 8.17067 76.3165 7.99721C76.1502 7.81835 75.9229 7.72728 75.6586 7.72824H74.3597V9.45553H74.44L74.44 9.37583L74.5204 9.37592V7.88744H75.6586C75.8884 7.88832 76.0611 7.96052 76.1993 8.10571C76.3406 8.25743 76.4057 8.41385 76.4065 8.58826C76.4057 8.76394 76.3422 8.92259 76.2049 9.07551C76.0707 9.22357 75.9052 9.29505 75.6859 9.29632H74.44L74.44 9.37583ZM74.44 7.23405L74.44 7.31375H75.5646C75.8153 7.31462 76.0306 7.22881 76.1864 7.05751C76.3382 6.89329 76.4194 6.70391 76.4194 6.50061C76.4194 6.2985 76.3414 6.10944 76.1928 5.94713C76.0426 5.77854 75.8337 5.69273 75.592 5.69368H74.3597V7.31375H74.44L74.44 7.23405L74.5204 7.23414V5.85289H75.592C75.7984 5.85416 75.951 5.91943 76.0731 6.05348C76.1992 6.19279 76.2579 6.33862 76.2587 6.50061C76.2579 6.66196 76.1976 6.80811 76.0675 6.9502C75.9406 7.08672 75.7807 7.15359 75.5646 7.15454H74.44L74.44 7.23405ZM73.8215 9.96258L73.9018 9.96267V5.26614H75.5646C75.9237 5.26677 76.2274 5.3818 76.49 5.61567C76.7511 5.8501 76.8772 6.1334 76.878 6.48724C76.878 6.70025 76.8226 6.88278 76.7134 7.04286C76.6025 7.20461 76.4571 7.32521 76.2715 7.40887L76.225 7.43005V7.56465L76.2788 7.58296C76.5029 7.6589 76.6836 7.78635 76.8274 7.97015C76.9688 8.15299 77.0395 8.35972 77.0395 8.60195C77.0387 8.97385 76.9053 9.27141 76.6314 9.5165C76.3551 9.76184 76.0362 9.88243 75.6586 9.88307H73.8215L73.8215 9.96258L73.8215 10.0423H75.6586C76.0715 10.0429 76.4362 9.90544 76.7391 9.63463C77.0443 9.36438 77.201 9.0127 77.2002 8.60195C77.201 8.32868 77.1174 8.08175 76.9543 7.87279C76.7929 7.66575 76.5824 7.51673 76.331 7.43251L76.3052 7.50765L76.3856 7.50774V7.48131L76.3052 7.48122L76.3382 7.55375C76.5479 7.45958 76.7198 7.31805 76.8459 7.1321C76.9744 6.94527 77.0387 6.72756 77.0387 6.48724C77.0395 6.09448 76.8901 5.75744 76.5977 5.49746C76.3085 5.23843 75.9591 5.10629 75.5646 5.10693H73.7412V10.0423H73.8215L73.8215 9.96258Z" fill="#6C727E"></path></svg>